<?xml version="1.0" standalone="no"?>
<!DOCTYPE svg PUBLIC "-//W3C//DTD SVG 20010904//EN" "http://www.w3.org/TR/2001/REC-SVG-20010904/DTD/svg10.dtd">
<!-- Created using Krita: https://krita.org -->
<svg xmlns="http://www.w3.org/2000/svg" 
    xmlns:xlink="http://www.w3.org/1999/xlink"
    xmlns:krita="http://krita.org/namespaces/svg/krita"
    xmlns:sodipodi="http://sodipodi.sourceforge.net/DTD/sodipodi-0.dtd"
    width="246.24pt"
    height="246.24pt"
    viewBox="0 0 246.24 246.24">
<defs/>
<rect id="shape0" transform="matrix(0.999999977691829 0 0 0.999999977691829 15.1199996627005 15.1199996627005)" fill="#373177" fill-rule="evenodd" stroke-opacity="0" stroke="#000000" stroke-width="0" stroke-linecap="square" stroke-linejoin="bevel" width="216" height="216" rx="18.9473684210526" ry="18.9473684210526"/><rect id="shape01" transform="matrix(11.0000002530483 0 0 11.0000002530483 112.302186955608 38.3727331334533)" fill="#ffc16c" fill-rule="evenodd" stroke-opacity="0" stroke="#000000" stroke-width="0" stroke-linecap="square" stroke-linejoin="bevel" width="1.92" height="15.36" rx="0.959999999999999" ry="1.44"/><rect id="shape1" transform="matrix(11.0000002530483 0 0 11.0000002530483 38.382185255123 112.292734833938)" fill="#ffc16c" fill-rule="evenodd" stroke-opacity="0" stroke="#000000" stroke-width="0" stroke-linecap="square" stroke-linejoin="bevel" width="15.36" height="1.92" rx="0.96" ry="0.96"/><rect id="shape2" transform="matrix(11.0000002530483 0 0 11.0000002530483 56.8621856802443 56.8527335585742)" fill="#ffc16c" fill-rule="evenodd" stroke-opacity="0" stroke="#000000" stroke-width="0" stroke-linecap="square" stroke-linejoin="bevel" width="2.4" height="2.4" rx="1.2" ry="1.2"/><rect id="shape3" transform="matrix(11.0000002530483 0 0 11.0000002530483 162.462188109508 56.8527335585742)" fill="#ffc16c" fill-rule="evenodd" stroke-opacity="0" stroke="#000000" stroke-width="0" stroke-linecap="square" stroke-linejoin="bevel" width="2.4" height="2.4" rx="1.2" ry="1.2"/><rect id="shape4" transform="matrix(11.0000002530483 0 0 11.0000002530483 162.462188109508 162.45273598784)" fill="#ffc16c" fill-rule="evenodd" stroke-opacity="0" stroke="#000000" stroke-width="0" stroke-linecap="square" stroke-linejoin="bevel" width="2.4" height="2.4" rx="1.2" ry="1.2"/><rect id="shape5" transform="matrix(11.0000002530483 0 0 11.0000002530483 56.8621856802443 162.45273598784)" fill="#ffc16c" fill-rule="evenodd" stroke-opacity="0" stroke="#000000" stroke-width="0" stroke-linecap="square" stroke-linejoin="bevel" width="2.4" height="2.4" rx="1.2" ry="1.2"/>
</svg>
