{
	"asset":{
		"copyright":"CovenFox Studios",
		"generator":"Khronos glTF Blender I/O v3.5.30",
		"version":"2.0"
	},
	"scene":0,
	"scenes":[
		{
			"name":"Scene",
			"nodes":[
				0,
				1
			]
		}
	],
	"nodes":[
		{
			"mesh":0,
			"name":"Cursor Walls",
			"translation":[
				0,
				-0.20000003278255463,
				0
			]
		},
		{
			"mesh":1,
			"name":"Cursor Indicator",
			"translation":[
				0,
				-0.20000003278255463,
				0
			]
		}
	],
	"animations":[
		{
			"channels":[
				{
					"sampler":0,
					"target":{
						"node":1,
						"path":"rotation"
					}
				},
				{
					"sampler":1,
					"target":{
						"node":1,
						"path":"translation"
					}
				},
				{
					"sampler":2,
					"target":{
						"node":1,
						"path":"scale"
					}
				}
			],
			"name":"Cursor Idle",
			"samplers":[
				{
					"input":8,
					"interpolation":"LINEAR",
					"output":9
				},
				{
					"input":10,
					"interpolation":"LINEAR",
					"output":11
				},
				{
					"input":10,
					"interpolation":"LINEAR",
					"output":12
				}
			]
		}
	],
	"meshes":[
		{
			"name":"Cube.001",
			"primitives":[
				{
					"attributes":{
						"POSITION":0,
						"TEXCOORD_0":1,
						"NORMAL":2
					},
					"indices":3
				}
			]
		},
		{
			"name":"Cube.002",
			"primitives":[
				{
					"attributes":{
						"POSITION":4,
						"TEXCOORD_0":5,
						"NORMAL":6
					},
					"indices":7
				}
			]
		}
	],
	"accessors":[
		{
			"bufferView":0,
			"componentType":5126,
			"count":1116,
			"max":[
				1.4000000953674316,
				1.399999976158142,
				1.4000000953674316
			],
			"min":[
				-1.4000000953674316,
				0.6000000238418579,
				-1.399999976158142
			],
			"type":"VEC3"
		},
		{
			"bufferView":1,
			"componentType":5126,
			"count":1116,
			"type":"VEC2"
		},
		{
			"bufferView":2,
			"componentType":5126,
			"count":1116,
			"type":"VEC3"
		},
		{
			"bufferView":3,
			"componentType":5123,
			"count":3552,
			"type":"SCALAR"
		},
		{
			"bufferView":4,
			"componentType":5126,
			"count":83,
			"max":[
				1.3248586654663086,
				4,
				1.3248586654663086
			],
			"min":[
				-1.3248586654663086,
				2.142636775970459,
				-1.3248586654663086
			],
			"type":"VEC3"
		},
		{
			"bufferView":5,
			"componentType":5126,
			"count":83,
			"type":"VEC2"
		},
		{
			"bufferView":6,
			"componentType":5126,
			"count":83,
			"type":"VEC3"
		},
		{
			"bufferView":7,
			"componentType":5123,
			"count":288,
			"type":"SCALAR"
		},
		{
			"bufferView":8,
			"componentType":5126,
			"count":30,
			"max":[
				1.25
			],
			"min":[
				0.041666666666666664
			],
			"type":"SCALAR"
		},
		{
			"bufferView":9,
			"componentType":5126,
			"count":30,
			"type":"VEC4"
		},
		{
			"bufferView":10,
			"componentType":5126,
			"count":16,
			"max":[
				1.25
			],
			"min":[
				0.625
			],
			"type":"SCALAR"
		},
		{
			"bufferView":11,
			"componentType":5126,
			"count":16,
			"type":"VEC3"
		},
		{
			"bufferView":12,
			"componentType":5126,
			"count":16,
			"type":"VEC3"
		}
	],
	"bufferViews":[
		{
			"buffer":0,
			"byteLength":13392,
			"byteOffset":0,
			"target":34962
		},
		{
			"buffer":0,
			"byteLength":8928,
			"byteOffset":13392,
			"target":34962
		},
		{
			"buffer":0,
			"byteLength":13392,
			"byteOffset":22320,
			"target":34962
		},
		{
			"buffer":0,
			"byteLength":7104,
			"byteOffset":35712,
			"target":34963
		},
		{
			"buffer":0,
			"byteLength":996,
			"byteOffset":42816,
			"target":34962
		},
		{
			"buffer":0,
			"byteLength":664,
			"byteOffset":43812,
			"target":34962
		},
		{
			"buffer":0,
			"byteLength":996,
			"byteOffset":44476,
			"target":34962
		},
		{
			"buffer":0,
			"byteLength":576,
			"byteOffset":45472,
			"target":34963
		},
		{
			"buffer":0,
			"byteLength":120,
			"byteOffset":46048
		},
		{
			"buffer":0,
			"byteLength":480,
			"byteOffset":46168
		},
		{
			"buffer":0,
			"byteLength":64,
			"byteOffset":46648
		},
		{
			"buffer":0,
			"byteLength":192,
			"byteOffset":46712
		},
		{
			"buffer":0,
			"byteLength":192,
			"byteOffset":46904
		}
	],
	"buffers":[
		{
			"byteLength":47096,
			"uri":"data:application/octet-stream;base64,"
		}
	]
}
